<?xml version="1.0" encoding="utf-8"?>
<!-- Generator: Adobe Illustrator 16.0.3, SVG Export Plug-In . SVG Version: 6.00 Build 0)  -->
<!DOCTYPE svg PUBLIC "-//W3C//DTD SVG 1.1//EN" "http://www.w3.org/Graphics/SVG/1.1/DTD/svg11.dtd">
<svg version="1.1" id="Layer_1" xmlns="http://www.w3.org/2000/svg" xmlns:xlink="http://www.w3.org/1999/xlink" x="0px" y="0px"
	 width="383.952px" height="383.952px" viewBox="0 0 383.952 383.952" enable-background="new 0 0 383.952 383.952"
	 xml:space="preserve">
<g>
	<path fill="currentColor" fill-rule="evenodd" clip-rule="evenodd" d="M383.952,174.728c0,11.499,0,22.998,0,34.496
		c-0.853,5.515-1.577,11.053-2.579,16.54c-6.441,35.317-21.385,66.583-45.242,93.423c-29.172,32.817-65.361,53.504-108.541,61.778
		c-6.09,1.166-12.242,2-18.366,2.987c-11.499,0-22.997,0-34.496,0c-3.794-0.558-7.593-1.081-11.381-1.681
		c-33.584-5.311-63.94-18.145-90.53-39.416C36.589,313.874,13.372,276.721,3.73,231.258c-1.544-7.281-2.501-14.687-3.73-22.034
		c0-11.498,0-22.997,0-34.496c0.846-5.518,1.557-11.061,2.56-16.551c6.427-35.181,21.29-66.342,45.002-93.14
		c28.19-31.857,63.115-52.379,104.757-61.258c7.402-1.578,14.936-2.535,22.409-3.779c11.499,0,22.997,0,34.496,0
		c0.696,0.219,1.38,0.569,2.091,0.638c28.387,2.743,54.912,11.315,79.201,26.212c47.646,29.222,77.712,71.16,89.696,125.85
		C381.805,159.967,382.723,167.381,383.952,174.728z M283.127,241.996c-10.881,14.887-25.267,22.833-41.719,28.152
		c4.572,5.633,8.745,10.927,13.127,16.041c0.82,0.957,2.508,1.738,3.743,1.668c4.351-0.244,8.72-0.662,13.008-1.43
		c21.007-3.763,38.882-13.114,52.285-30.073c1.191-1.508,1.945-3.821,1.922-5.749c-0.089-7.363-0.238-14.755-0.978-22.074
		c-3.242-32.108-11.48-62.951-24.188-92.597c-7.448-17.375-8.104-18.139-24.861-26.936c-13.716-7.2-28.241-11.868-43.778-12.978
		c-3.361-0.24-3.371-0.099-4.775,2.641c9.715,4.092,19.574,7.927,29.154,12.366c9.666,4.478,18.697,10.091,26.603,17.26
		c-61.632-31.128-123.252-30.039-185.045-0.45c17.34-14.521,37.688-23.056,59.12-29.771c-1.865-3.438-4.796-2.12-7.082-1.859
		c-20.774,2.371-39.5,10.068-56.401,22.271c-1.343,0.97-2.558,2.412-3.279,3.902C70.43,162.755,59.023,205.164,58.453,250.21
		c-0.027,2.149,0.814,4.745,2.151,6.412c16.643,20.769,39.077,29.709,64.994,31.301c0.904,0.056,2.214-0.115,2.706-0.706
		c4.78-5.732,9.426-11.576,14.183-17.479c-21.694-8.924-34.257-17.677-39.341-27.206
		C162.725,276.245,222.397,277.486,283.127,241.996z"/>
	<path fill="currentColor" fill-rule="evenodd" clip-rule="evenodd" d="M172.762,206.297c0.083,15.271-10.841,26.679-25.065,26.176
		c-10.674-0.377-19.78-9.186-22.124-21.401c-2.495-13.003,5.947-26.776,18.145-29.604
		C158.863,177.958,172.672,189.764,172.762,206.297z"/>
	<path fill="currentColor" fill-rule="evenodd" clip-rule="evenodd" d="M256.824,206.741c-0.305,14.909-11.17,26.269-25.104,25.688
		c-8.565-0.357-14.772-4.923-19.02-12.149c-5.973-10.163-4.49-23.678,3.443-31.982c6.188-6.477,13.737-9.078,22.467-6.691
		c8.933,2.441,14.351,8.71,16.955,17.418C256.307,201.501,256.422,204.164,256.824,206.741z"/>
</g>
</svg>
