<?xml version="1.0" encoding="utf-8"?>
<!-- Generator: Adobe Illustrator 16.0.3, SVG Export Plug-In . SVG Version: 6.00 Build 0)  -->
<!DOCTYPE svg PUBLIC "-//W3C//DTD SVG 1.1//EN" "http://www.w3.org/Graphics/SVG/1.1/DTD/svg11.dtd">
<svg version="1.1" id="Layer_1" xmlns="http://www.w3.org/2000/svg" xmlns:xlink="http://www.w3.org/1999/xlink" x="0px" y="0px"
	 width="383.952px" height="383.952px" viewBox="0 0 383.952 383.952" enable-background="new 0 0 383.952 383.952"
	 xml:space="preserve">
<g>
	<path fill="currentColor" fill-rule="evenodd" clip-rule="evenodd" d="M209.224,383.952c-11.499,0-22.997,0-34.496,0
		c-3.795-0.558-7.596-1.077-11.383-1.678c-33.577-5.326-63.941-18.132-90.531-39.416c-36.218-28.993-59.443-66.138-69.084-111.601
		C2.186,223.977,1.229,216.571,0,209.224c0-11.498,0-22.997,0-34.496c0.846-5.518,1.557-11.061,2.559-16.551
		c6.426-35.181,21.292-66.343,45.003-93.14C75.751,33.181,110.677,12.659,152.32,3.782c7.401-1.579,14.935-2.537,22.408-3.782
		c11.499,0,22.997,0,34.496,0c0.696,0.22,1.379,0.571,2.089,0.64c28.387,2.741,54.915,11.314,79.202,26.211
		c47.642,29.223,77.715,71.158,89.697,125.849c1.592,7.267,2.51,14.682,3.74,22.028c0,11.499,0,22.998,0,34.496
		c-0.853,5.515-1.578,11.053-2.579,16.54c-6.441,35.317-21.384,66.585-45.243,93.424c-29.171,32.813-65.356,53.507-108.538,61.779
		C221.502,382.133,215.349,382.965,209.224,383.952z M191.803,288.806c32.616,0,65.232,0.011,97.849-0.021
		c2.736-0.003,5.542,0.037,8.198-0.512c14.773-3.053,24.578-15.075,24.594-30.166c0.044-42.738,0.021-85.477,0.014-128.215
		c-0.003-19.621-12.742-32.403-32.277-32.404c-65.357-0.002-130.714-0.001-196.071,0c-19.893,0-32.61,12.643-32.614,32.439
		c-0.007,42.113,0.31,84.23-0.144,126.339c-0.203,18.802,14.237,33.03,32.607,32.702
		C126.563,288.387,159.187,288.806,191.803,288.806z"/>
	<path fill="currentColor" fill-rule="evenodd" clip-rule="evenodd" d="M81.088,133.207c10.139,7.519,19.465,14.416,28.772,21.339
		c26.355,19.602,52.735,39.17,79.001,58.892c2.52,1.892,3.97,1.691,6.372-0.104c34.608-25.871,69.304-51.627,103.981-77.407
		c0.971-0.721,1.977-1.394,3.449-2.43c0.087,1.634,0.192,2.688,0.192,3.743c0.009,39.62,0.014,79.239,0.003,118.858
		c-0.003,9.238-3.956,13.116-13.299,13.117c-65.117,0.001-130.233,0.002-195.349-0.001c-9.087,0-13.114-3.938-13.117-12.914
		c-0.015-39.619-0.006-79.239-0.006-118.859C81.088,136.356,81.088,135.271,81.088,133.207z"/>
	<path fill="currentColor" fill-rule="evenodd" clip-rule="evenodd" d="M92.897,117.223c66.407,0,131.842,0,198.126,0
		c-1.479,1.219-2.345,1.996-3.274,2.688c-30.754,22.893-61.539,45.743-92.229,68.72c-2.602,1.949-4.225,2.125-6.957,0.077
		c-30.775-23.072-61.671-45.981-92.531-68.94C95.176,119.13,94.372,118.423,92.897,117.223z"/>
</g>
</svg>
