<?xml version="1.0" encoding="utf-8"?>
<!-- Generator: Adobe Illustrator 16.0.3, SVG Export Plug-In . SVG Version: 6.00 Build 0)  -->
<!DOCTYPE svg PUBLIC "-//W3C//DTD SVG 1.1//EN" "http://www.w3.org/Graphics/SVG/1.1/DTD/svg11.dtd">
<svg version="1.1" id="Layer_1" xmlns="http://www.w3.org/2000/svg" xmlns:xlink="http://www.w3.org/1999/xlink" x="0px" y="0px"
	 width="383.952px" height="383.952px" viewBox="0 0 383.952 383.952" enable-background="new 0 0 383.952 383.952"
	 xml:space="preserve">
<g>
	<path fill="currentColor" fill-rule="evenodd" clip-rule="evenodd" d="M179.978,0c7.999,0,15.998,0,23.997,0c6.898,0.962,13.832,1.729,20.691,2.917
		c80.435,13.933,142.879,79.504,156.317,159.714c1.214,7.244,1.989,14.563,2.969,21.846c0,8,0,15.998,0,23.997
		c-0.209,1.087-0.464,2.167-0.619,3.261c-1.301,9.137-1.931,18.426-3.978,27.391C365.503,299.77,331.25,344.938,275.942,373.76
		c-7.48,3.898-15.47,6.819-23.224,10.192c-2.25,0-4.5,0-6.75,0c-5.271-2.651-6.529-7.148-6.434-12.695
		c0.267-15.366,0.172-30.738,0.343-46.107c0.167-15.021-1.521-29.448-12.296-40.981c9.26-2.018,18.48-3.521,27.401-6.068
		c22.428-6.402,39.881-19.188,49.909-40.859c5.36-11.587,7.805-23.9,8.987-36.532c2.247-23.998-1.548-46.325-17.663-65.375
		c-0.697-0.824-1.045-2.517-0.724-3.547c4.14-13.275,3.856-26.59,0.579-39.942c-2.805-11.423-4.264-12.293-15.877-9.632
		c-13.619,3.121-25.541,9.87-36.98,17.565c-2.133,1.435-3.999,1.866-6.555,1.204c-29.738-7.701-59.515-7.771-89.253,0.018
		c-2.533,0.663-4.429,0.254-6.566-1.2c-9.729-6.62-19.866-12.58-31.221-15.933c-4.855-1.434-9.997-1.96-15.042-2.656
		c-1.865-0.258-3.483,0.312-4.276,2.647c-5.274,15.519-6.888,31.165-1.908,47.055c0.686,2.187,0.303,3.556-1.15,5.285
		c-7.844,9.336-13.648,19.94-15.578,31.952c-1.533,9.54-1.952,19.381-1.697,29.058c0.368,13.929,3.264,27.489,9.217,40.241
		c10.49,22.469,28.852,35.153,52.126,41.442c8.116,2.193,16.461,3.54,25.028,5.342c-6.529,6.876-9.751,15.236-11.403,24.347
		c-0.159,0.878-1.145,1.952-2.005,2.306c-19.185,7.897-39.604,6.328-52.86-15.114c-0.788-1.274-1.514-2.589-2.351-3.829
		c-5.304-7.863-11.898-14.354-21.233-16.888c-4.043-1.098-8.595-0.979-12.821-0.526c-3.076,0.33-3.7,2.779-1.734,5.27
		c1.372,1.737,3.029,3.408,4.893,4.574c11.129,6.967,17.686,17.398,22.366,29.23c7.394,18.692,21.622,27.879,41.148,29.002
		c7.758,0.445,15.604-0.646,24.08-1.072c0,9.965-0.095,20.313,0.038,30.656c0.071,5.563-1.716,9.745-7.224,11.765c-2,0-4,0-6,0
		c-1.22-0.558-2.419-1.168-3.664-1.666C58.551,354.673,17.493,303.952,3.052,231.356c-1.499-7.531-2.058-15.25-3.052-22.883
		c0-7.999,0-15.997,0-23.997c0.558-4.694,1.03-9.402,1.686-14.084c6.41-45.728,25.808-84.979,59.068-117.1
		c27.785-26.833,60.769-43.77,98.902-50.405C166.394,1.715,173.202,0.952,179.978,0z"/>
</g>
</svg>
