<?xml version="1.0" encoding="utf-8"?>
<!-- Generator: Adobe Illustrator 16.0.3, SVG Export Plug-In . SVG Version: 6.00 Build 0)  -->
<!DOCTYPE svg PUBLIC "-//W3C//DTD SVG 1.1//EN" "http://www.w3.org/Graphics/SVG/1.1/DTD/svg11.dtd">
<svg version="1.1" id="Layer_1" xmlns="http://www.w3.org/2000/svg" xmlns:xlink="http://www.w3.org/1999/xlink" x="0px" y="0px"
	 width="383.953px" height="383.953px" viewBox="0 0 383.953 383.953" enable-background="new 0 0 383.953 383.953"
	 xml:space="preserve">
<g>
	<path d="M381.006,158.896c-10.69-57.38-41.221-101.26-90.771-131.77c-25.5-15.7-53.479-24.28-83.37-26.51
		c-0.979-0.08-1.93-0.41-2.89-0.62h-24c-6.9,0.96-13.84,1.7-20.7,2.9c-44.44,7.75-81.59,28.71-111.42,62.42
		c-27.13,30.66-42.51,66.62-46.95,107.28c-0.27,2.47-0.6,4.92-0.91,7.38v24c0.98,7.15,1.7,14.35,2.99,21.45
		c8.5,46.84,31.36,85.34,68.06,115.52c27.65,22.73,59.46,36.23,94.87,41.271c4.68,0.66,9.37,1.16,14.06,1.74h24
		c7.15-0.98,14.34-1.69,21.43-2.98c46.83-8.52,85.391-31.32,115.521-68.05c24.24-29.53,38-63.59,42.109-101.57
		c0.261-2.46,0.61-4.92,0.921-7.38v-24C382.986,172.946,382.306,165.866,381.006,158.896z M114.646,286.096
		c-7.48-33.93-27.63-119.64-28.81-124.56c-1.27-5.24-2.59-19.5,9.62-19.31h35.36c11.5,0,14.64,18.31,14.64,18.31h23.21l-31.21,105.5
		c-2.93,9.921-5.69,24.32-14.99,35.57C122.466,301.606,117.206,297.726,114.646,286.096z M297.936,98.536
		c-1.96,6.21-54.88,182.52-57.63,191.75c-1.76,5.931-9.2,13.5-19.45,13.5h-92.42c8.04-7.81,13.09-27.819,16.02-37.75l50.23-169.75
		c1.5-5.04,8.21-16.12,19.87-16.12h73.13C298.856,80.166,300.316,90.996,297.936,98.536z"/>
</g>
</svg>
