<?xml version="1.0" encoding="utf-8"?>
<!-- Generator: Adobe Illustrator 28.2.0, SVG Export Plug-In . SVG Version: 6.00 Build 0)  -->
<svg version="1.1"
	 id="svg2" xmlns:cc="http://creativecommons.org/ns#" xmlns:dc="http://purl.org/dc/elements/1.1/" xmlns:rdf="http://www.w3.org/1999/02/22-rdf-syntax-ns#" xmlns:svg="http://www.w3.org/2000/svg"
	 xmlns="http://www.w3.org/2000/svg" xmlns:xlink="http://www.w3.org/1999/xlink" x="0px" y="0px" viewBox="0 0 800 800"
	 style="enable-background:new 0 0 800 800;" xml:space="preserve">
<path d="M451.4,427.7C419.9,464.4,350,528.3,350,528.3s-3.1,3-7.8,0.6c-1.9-1.4-2.7-2.3-2.7-2.3c-11.2-11.2-85.2-77.1-102-100
	c-17.9-24.4-26.3-68.3-2.3-93.9c24-25.6,76-27.5,110.3,10.3c0,0,39.6-45.1,87.7-24.4C481.3,339.4,479.5,394.8,451.4,427.7z"/>
<path d="M643.9,319.2c8.8,10.2,15.8,24.5,15.8,44.3c0,48.4-24.9,67.5-52.1,76.3c-23.5,2.9-42.5,0.7-42.5,0.7V296.8h28.9
	C613,296.8,631.4,304.7,643.9,319.2z"/>
<path d="M400,0C179.1,0,0,179.1,0,400c0,220.9,179.1,400,400,400c220.9,0,400-179.1,400-400C800,179.1,620.9,0,400,0z M563.1,513.8
	c0.6,28.3-5.1,79.2-59.8,92.9c-4.4,1.1-8.9,1.6-13.4,1.6c-96.2,0.6-296.7,1.2-296.7,1.2s-61.4,0-65.6-61.3
	c-1.4-103.8-0.7-298.3-0.7-298.3s0-3.9,0-4.9c0.1-7.5,5.9-22.4,21.2-22.4h439.4c31,0,61.4,9.1,86.8,26.8
	c24.6,17.1,48.5,44.9,56.9,89.4C750.8,442.2,673.1,519.9,563.1,513.8z"/>
</svg>
