<?xml version="1.0" encoding="utf-8"?>
<!-- Generator: Adobe Illustrator 16.0.0, SVG Export Plug-In . SVG Version: 6.00 Build 0)  -->
<!DOCTYPE svg PUBLIC "-//W3C//DTD SVG 1.1//EN" "http://www.w3.org/Graphics/SVG/1.1/DTD/svg11.dtd">
<svg version="1.1" id="Layer_1" xmlns="http://www.w3.org/2000/svg" xmlns:xlink="http://www.w3.org/1999/xlink" x="0px" y="0px"
	 width="383.953px" height="383.953px" viewBox="0 0 383.953 383.953" enable-background="new 0 0 383.953 383.953"
	 xml:space="preserve">
<g>
	<path d="M381.007,158.896c-10.69-57.38-41.221-101.26-90.771-131.77c-25.5-15.7-53.479-24.28-83.37-26.51
		c-0.979-0.08-1.93-0.41-2.89-0.62h-24c-6.9,0.96-13.84,1.7-20.7,2.9c-44.44,7.75-81.59,28.71-111.42,62.42
		c-27.13,30.66-42.51,66.62-46.95,107.28c-0.27,2.47-0.6,4.92-0.91,7.38v24c0.98,7.15,1.7,14.35,2.99,21.45
		c8.5,46.84,31.36,85.34,68.06,115.52c27.65,22.73,59.46,36.23,94.87,41.271c4.68,0.66,9.37,1.16,14.06,1.74h24
		c7.15-0.98,14.34-1.69,21.43-2.98c46.83-8.52,85.391-31.32,115.521-68.05c24.24-29.53,38-63.59,42.109-101.57
		c0.261-2.46,0.61-4.92,0.921-7.38v-24C382.986,172.947,382.307,165.867,381.007,158.896z M139.256,293.847h-45.75v-147.83h45.75
		V293.847z M116.387,125.447c-14.53-0.01-26.6-12.07-26.62-26.6c-0.03-14.69,12.04-26.76,26.75-26.74
		c14.57,0.02,26.58,12.03,26.58,26.58C143.106,113.447,131.106,125.457,116.387,125.447z M312.106,291.856v1.91h-45.88v-3.09
		c0-24.48,0.08-48.97-0.07-73.46c-0.029-5.19-0.449-10.46-1.47-15.54c-2.85-14.17-11.36-20.27-25.76-19
		c-13.95,1.24-21.91,9.49-23.66,24.74c-0.45,3.93-0.69,7.909-0.7,11.859c-0.06,23.71-0.03,47.431-0.03,71.141v3.35h-45.95v-147.7
		h44.09v20.19c3.109-3.72,5.68-7.38,8.83-10.43c10.189-9.85,22.529-14.12,36.68-13.67c11.56,0.37,22.73,1.99,32.57,8.65
		c10.68,7.23,15.689,18.01,18.479,30.1c2.41,10.42,2.94,21.04,2.94,31.69C312.217,239.017,312.137,265.437,312.106,291.856z"/>
</g>
</svg>
