<?xml version="1.0" encoding="utf-8"?>
<!-- Generator: Adobe Illustrator 28.2.0, SVG Export Plug-In . SVG Version: 6.00 Build 0)  -->
<svg version="1.1" id="Layer_1" xmlns="http://www.w3.org/2000/svg" xmlns:xlink="http://www.w3.org/1999/xlink" x="0px" y="0px"
	 viewBox="0 0 384 384" style="enable-background:new 0 0 384 384;" xml:space="preserve">
<g>
	<path d="M381,158.9c-10.7-57.4-41.2-101.3-90.8-131.8c-25.5-15.7-53.5-24.3-83.4-26.5c-1-0.1-1.9-0.4-2.9-0.6h-24
		c-6.9,1-13.8,1.7-20.7,2.9c-44.4,7.8-81.6,28.7-111.4,62.4C20.7,96,5.3,131.9,0.9,172.6c-0.3,2.5-0.6,4.9-0.9,7.4v24
		c1,7.1,1.7,14.4,3,21.4c8.5,46.8,31.4,85.3,68.1,115.5c27.7,22.7,59.5,36.2,94.9,41.3c4.7,0.7,9.4,1.2,14.1,1.7h24
		c7.1-1,14.3-1.7,21.4-3c46.8-8.5,85.4-31.3,115.5-68.1c24.2-29.5,38-63.6,42.1-101.6c0.3-2.5,0.6-4.9,0.9-7.4v-24
		C383,172.9,382.3,165.9,381,158.9z M133.2,308.7H92.3V85.3h40.9V308.7z M241.5,252.8c-46.2,0-83.8-37.5-83.8-83.6
		c0-46.2,37.6-83.9,83.8-83.9c46.1,0,83.5,37.6,83.5,83.9C325,215.3,287.5,252.8,241.5,252.8z"/>
</g>
</svg>
