<?xml version="1.0" encoding="utf-8"?>
<!-- Generator: Adobe Illustrator 28.2.0, SVG Export Plug-In . SVG Version: 6.00 Build 0)  -->
<svg version="1.1"
	 id="svg2" xmlns:cc="http://creativecommons.org/ns#" xmlns:dc="http://purl.org/dc/elements/1.1/" xmlns:rdf="http://www.w3.org/1999/02/22-rdf-syntax-ns#" xmlns:svg="http://www.w3.org/2000/svg"
	 xmlns="http://www.w3.org/2000/svg" xmlns:xlink="http://www.w3.org/1999/xlink" x="0px" y="0px" viewBox="0 0 800 800"
	 style="enable-background:new 0 0 800 800;" xml:space="preserve">
<path d="M400,0C179.1,0,0,179.1,0,400c0,220.9,179.1,400,400,400c220.9,0,400-179.1,400-400C800,179.1,620.9,0,400,0z M641.2,393
	c-11.2,71.7-72.8,124.5-145.2,124.5h-46c-7.4,0-13.6,5.4-14.8,12.7l-20.6,130.6c-1.2,7.3-7.4,12.6-14.8,12.6h-78.2
	c-0.6,0-1.3,0-1.9-0.2c-6.6-1-11.1-7.3-10.1-13.9l14.2-89.9l22.6-143.3c1.1-7.3,7.4-12.6,14.8-12.6h72c72.5,0,134-52.9,145.2-124.6
	c0.8-5.4,1.3-10.8,1.4-16.2C623.5,295.8,649.2,342.1,641.2,393z M570.6,263.7c-0.1,5.4-0.6,10.8-1.4,16.2
	c-11.2,71.7-72.8,124.5-145.2,124.5h-72c-7.4,0-13.6,5.4-14.8,12.6l-22.6,143.3h-91c-7.5,0-13.2-6.7-12-14.1l61.3-389
	c1.1-7.3,7.4-12.6,14.8-12.6H444C518,144.6,571.8,198.4,570.6,263.7L570.6,263.7L570.6,263.7z"/>
<g>
	<line x1="570.6" y1="263.7" x2="570.6" y2="263.7"/>
	<line x1="570.6" y1="263.7" x2="570.6" y2="263.7"/>
</g>
</svg>
