<?xml version="1.0" encoding="utf-8"?>
<!-- Generator: Adobe Illustrator 16.0.3, SVG Export Plug-In . SVG Version: 6.00 Build 0)  -->
<!DOCTYPE svg PUBLIC "-//W3C//DTD SVG 1.1//EN" "http://www.w3.org/Graphics/SVG/1.1/DTD/svg11.dtd">
<svg version="1.1" id="Layer_1" xmlns="http://www.w3.org/2000/svg" xmlns:xlink="http://www.w3.org/1999/xlink" x="0px" y="0px"
	 width="383.952px" height="383.952px" viewBox="0 0 383.952 383.952" enable-background="new 0 0 383.952 383.952"
	 xml:space="preserve">
<g>
	<path fill="currentColor" fill-rule="evenodd" clip-rule="evenodd" d="M383.952,179.978c0,7.999,0,15.998,0,23.997
		c-0.308,2.461-0.651,4.918-0.918,7.383c-4.11,37.973-17.869,72.035-42.104,101.568c-30.137,36.727-68.691,59.533-115.52,68.053
		c-7.091,1.291-14.288,1.997-21.436,2.974c-7.999,0-15.998,0-23.997,0c-4.686-0.576-9.383-1.077-14.056-1.741
		c-35.415-5.038-67.229-18.534-94.879-41.269c-36.698-30.176-59.556-68.677-68.059-115.515C1.695,218.33,0.98,211.128,0,203.975
		c0-7.999,0-15.998,0-23.997c0.304-2.459,0.637-4.916,0.906-7.379c4.443-40.666,19.817-76.625,46.947-107.281
		c29.83-33.71,66.983-54.672,111.423-62.421c6.86-1.197,13.8-1.942,20.702-2.896c7.999,0,15.998,0,23.997,0
		c0.961,0.21,1.914,0.54,2.887,0.613c29.893,2.234,57.876,10.816,83.372,26.512c49.557,30.509,80.079,74.395,90.774,131.77
		C382.307,165.862,382.985,172.947,383.952,179.978z M111.559,171.615c-0.451-0.287-0.676-0.402-0.871-0.556
		c-13.864-10.918-31.915-8.784-41.523,4.912c-9.498,13.539-5.352,31.236,9.354,40.571c0.996,0.633,1.791,2.553,1.692,3.795
		c-1.22,15.415,3.106,29.147,12.301,41.42c11.04,14.734,25.815,24.52,42.622,31.361c27.975,11.388,56.964,13.497,86.466,8.07
		c21.824-4.016,41.934-12.285,58.695-27.288c15.541-13.911,24.958-30.766,23.402-52.355c-0.206-2.864,0.548-4.296,3.016-5.91
		c10.294-6.735,14.57-16.425,12.734-28.635c-1.614-10.729-10.124-19.689-21.212-22.213c-9.702-2.209-18.267,0.375-25.739,6.973
		c-22.381-15.585-47.491-22.376-74.814-23.711c4.263-20.088,8.444-39.794,12.658-59.652c1.285,0.114,2.28,0.101,3.23,0.302
		c11.598,2.453,23.172,5.022,34.795,7.351c2.741,0.549,3.763,1.775,4.336,4.475c2.07,9.749,11.478,16.486,20.998,15.381
		c9.479-1.1,16.857-8.02,18.002-16.886c1.231-9.535-3.802-18.284-12.463-21.662c-8.744-3.411-18.128-0.515-23.738,7.576
		c-1.216,1.752-2.218,2.095-4.257,1.647c-13.651-3-27.339-5.835-41.016-8.721c-6.439-1.358-7.86-0.379-9.218,6.147
		c-4.221,20.281-8.52,40.547-12.632,60.85c-0.495,2.439-1.399,3.312-3.835,3.417C158.166,149.411,133.649,156.462,111.559,171.615z"
		/>
	<path fill="currentColor" fill-rule="evenodd" clip-rule="evenodd" d="M148.064,231.894c-11.155,0.047-20.011-8.778-20.005-19.935
		c0.005-10.941,8.779-19.857,19.65-19.97c11.059-0.114,20.173,8.794,20.261,19.802C168.058,222.86,159.159,231.847,148.064,231.894z
		"/>
	<path fill="currentColor" fill-rule="evenodd" clip-rule="evenodd" d="M255.888,212.149c-0.077,11.132-9.018,19.87-20.196,19.74
		c-10.916-0.127-19.712-9.015-19.711-19.917c0.002-11.021,9.041-20.02,20.075-19.986
		C247.102,192.02,255.966,201.032,255.888,212.149z"/>
	<path fill="currentColor" fill-rule="evenodd" clip-rule="evenodd" d="M193.646,279.681c-14.653-0.587-27.561-1.881-39.352-8.087
		c-3.383-1.78-6.518-4.151-9.452-6.623c-2.408-2.029-2.387-5.313-0.375-7.313c2.193-2.182,4.699-2.335,7.063-0.395
		c13.77,11.296,30.186,12.452,46.789,11.455c7.971-0.479,15.911-2.807,23.66-5.014c3.451-0.981,6.526-3.556,9.539-5.73
		c3.352-2.42,6.156-2.638,8.244-0.113c1.994,2.41,1.438,5.493-1.597,8.149c-8.405,7.354-18.656,10.376-29.354,12.094
		C203.28,278.991,197.65,279.279,193.646,279.681z"/>
</g>
</svg>
