<?xml version="1.0" standalone="no"?>
<!DOCTYPE svg PUBLIC "-//W3C//DTD SVG 20010904//EN"
 "http://www.w3.org/TR/2001/REC-SVG-20010904/DTD/svg10.dtd">
<svg version="1.0" xmlns="http://www.w3.org/2000/svg"
 width="1280.000000pt" height="1280.000000pt" viewBox="0 0 1280.000000 1280.000000"
 preserveAspectRatio="xMidYMid meet">
<metadata>
Created by potrace 1.14, written by Peter Selinger 2001-2017
</metadata>
<g transform="translate(0.000000,1280.000000) scale(0.100000,-0.100000)"
fill="#000000" stroke="none">
<path d="M0 12088 l0 -711 495 6 c304 3 500 9 508 15 7 6 216 13 537 17 289 3
672 9 853 13 l327 7 -27 -20 c-83 -59 -191 -182 -232 -262 -49 -97 -82 -368
-110 -898 -17 -327 29 -1164 90 -1635 41 -317 146 -647 296 -930 31 -58 63
-115 71 -127 28 -43 4 -23 -54 47 -93 112 -95 83 -11 -180 75 -239 167 -411
248 -470 29 -21 35 -29 24 -34 -41 -15 4 -61 128 -132 78 -45 77 -49 -29 -84
-50 -17 -64 -26 -64 -41 0 -30 34 -91 86 -154 25 -31 44 -58 42 -59 -2 -1 -23
-11 -48 -23 -25 -11 -107 -68 -184 -126 -76 -58 -174 -125 -218 -149 -44 -24
-89 -51 -101 -60 l-22 -16 20 -26 c35 -44 287 -245 340 -272 l52 -25 -77 -77
c-122 -122 -170 -202 -122 -202 9 0 47 20 84 45 37 25 69 45 72 45 2 0 -11
-30 -30 -68 -58 -116 -74 -201 -85 -442 -5 -118 -14 -233 -20 -255 -20 -76
-19 -80 26 -77 63 4 150 29 236 66 l79 35 -75 -86 c-41 -47 -75 -91 -75 -98 0
-7 10 -14 23 -17 45 -7 354 12 412 26 33 8 61 13 63 12 1 -2 -6 -23 -17 -47
-25 -57 -43 -153 -39 -204 2 -32 7 -41 25 -43 16 -2 26 5 38 28 9 18 18 30 20
28 2 -2 -3 -30 -11 -63 -23 -99 -13 -390 14 -417 10 -10 17 -7 37 14 43 47 78
52 314 44 196 -6 309 -1 476 20 l50 7 -25 -21 c-14 -11 -22 -23 -18 -27 4 -4
66 -6 138 -6 143 2 217 -11 326 -58 55 -24 68 -35 125 -111 176 -240 266 -303
459 -325 l64 -7 -59 -28 c-33 -15 -81 -43 -107 -63 -27 -20 -90 -63 -140 -94
-119 -73 -205 -158 -246 -243 -37 -77 -54 -161 -82 -403 -11 -97 -23 -184 -26
-192 -5 -13 -45 -15 -261 -15 -223 0 -254 2 -249 15 4 13 -9 15 -89 15 -57 0
-95 4 -95 10 0 6 -40 10 -100 10 -60 0 -100 4 -100 10 0 6 -42 10 -106 10 -67
0 -103 4 -99 10 4 6 -37 10 -115 10 -78 0 -119 4 -115 10 4 6 -40 10 -124 10
-81 0 -131 4 -131 10 0 6 -82 10 -225 10 -143 0 -225 4 -225 10 0 6 -120 10
-340 10 -220 0 -340 4 -340 10 0 7 -362 10 -1065 10 l-1065 0 0 -1305 0 -1305
3361 0 3362 0 -6 208 c-8 316 -53 619 -147 992 -52 209 -70 280 -77 310 -8 34
-73 120 -154 205 -37 39 -83 94 -103 124 -69 107 -263 323 -448 502 l-130 125
21 98 c45 207 78 643 61 809 -6 59 -13 113 -16 121 -4 10 14 20 63 36 61 20
256 106 402 177 52 26 99 60 321 229 126 96 568 331 834 444 93 39 194 84 225
99 34 17 79 30 116 34 33 3 177 32 320 65 220 51 382 85 518 107 l27 5 -7 -73
c-5 -39 -8 -175 -8 -302 0 -248 11 -331 61 -443 28 -64 109 -151 169 -183 25
-13 45 -27 45 -30 0 -3 -26 -16 -57 -29 -97 -39 -332 -150 -385 -181 -28 -17
-52 -29 -53 -27 -2 2 5 46 15 98 39 196 38 320 0 320 -18 0 -20 -7 -20 -77 0
-92 -13 -187 -41 -303 l-20 -85 -61 -45 c-142 -107 -289 -294 -450 -575 -98
-170 -437 -844 -444 -881 -7 -37 -74 -136 -173 -255 -98 -119 -130 -176 -170
-301 -79 -251 -93 -363 -98 -812 -3 -208 -2 -408 2 -442 l7 -64 2969 0 2969 0
0 1295 0 1295 -131 0 c-84 0 -128 -4 -124 -10 4 -7 -77 -10 -234 -10 -154 0
-241 -4 -241 -10 0 -6 -50 -10 -130 -10 -80 0 -130 -4 -130 -10 0 -6 -47 -10
-121 -10 -77 0 -118 -4 -114 -10 4 -6 -32 -10 -99 -10 -64 0 -106 -4 -106 -10
0 -6 -42 -10 -106 -10 -67 0 -103 -4 -99 -10 4 -6 -30 -10 -96 -10 -89 0 -100
-2 -89 -15 11 -13 8 -15 -20 -15 -20 0 -78 22 -144 55 -122 60 -235 96 -368
116 -85 13 -87 14 -92 43 -8 42 -58 145 -111 231 -57 90 -68 124 -111 325 -85
396 -101 441 -180 529 -60 67 -183 148 -335 220 -181 86 -395 152 -697 215
-175 37 -336 77 -345 86 -5 4 -3 102 4 218 l12 211 49 6 c84 12 241 -12 308
-45 19 -10 50 -32 69 -49 39 -35 44 -37 61 -16 9 11 9 22 1 46 -6 18 -11 33
-11 35 0 9 76 -44 119 -82 27 -24 56 -44 65 -44 40 0 3 135 -56 205 l-26 30
122 -12 c211 -21 327 -53 409 -113 52 -38 67 -38 67 0 0 40 -41 120 -88 172
-28 32 -32 40 -17 36 11 -3 55 -16 98 -29 95 -28 94 -29 127 93 48 177 46 365
-4 488 -13 33 -21 60 -18 60 4 0 24 -18 47 -40 85 -83 79 -6 -13 173 -53 104
-124 186 -206 238 l-58 37 38 12 c22 7 102 41 180 75 172 77 225 93 331 102
46 3 83 10 83 15 0 5 -18 37 -39 71 -22 34 -39 63 -37 64 1 1 25 -6 54 -17 34
-13 59 -17 73 -11 21 7 19 12 -43 72 -36 35 -110 120 -165 189 -107 134 -209
236 -312 315 -68 52 -201 125 -229 125 -9 1 4 12 29 25 64 33 115 95 176 212
29 54 63 109 77 123 38 35 34 54 -9 47 -19 -3 -35 -3 -34 1 0 4 20 23 44 42
77 61 67 66 -154 61 -187 -3 -194 -3 -186 15 41 98 48 127 53 211 6 121 3 128
-44 108 -21 -8 -38 -14 -40 -12 -2 1 3 40 10 85 11 71 11 85 -1 97 -7 8 -20
12 -28 9 -9 -4 -1 17 20 51 79 133 133 315 92 315 -15 0 -15 4 -1 42 25 71 36
221 26 356 -5 77 -13 127 -21 131 -9 6 -9 23 -2 72 21 130 24 319 7 524 -9
110 -20 322 -26 470 -13 333 -39 639 -70 820 -6 33 -21 130 -35 215 -33 202
-76 372 -119 465 l-35 75 103 0 c56 0 106 -4 112 -9 10 -10 275 -17 984 -27
308 -4 439 -9 449 -17 10 -9 255 -13 933 -15 l918 -4 0 711 0 711 -6400 0
-6400 0 0 -712z m9074 -481 c151 -75 241 -232 303 -531 58 -280 112 -689 128
-966 6 -102 5 -122 -15 -179 -45 -133 -183 -380 -309 -551 -116 -158 -384
-565 -416 -632 -18 -38 -36 -87 -40 -109 -5 -27 -11 -39 -20 -35 -21 8 -49
-18 -104 -98 -60 -87 -86 -143 -96 -204 -4 -23 -11 -40 -16 -37 -16 11 -51
-37 -97 -133 -40 -83 -47 -106 -47 -158 0 -51 4 -66 28 -97 48 -63 85 -43 41
22 -38 58 -34 102 16 208 37 78 43 86 53 69 7 -10 26 -39 42 -64 64 -95 109
-88 61 10 -31 63 -43 157 -27 215 6 23 33 74 59 113 42 64 48 69 53 48 4 -13
7 -38 8 -55 1 -39 39 -84 51 -62 4 8 11 50 15 94 9 112 30 195 65 265 31 62
266 416 385 580 105 145 172 253 246 395 56 106 69 125 73 105 3 -14 8 -105
11 -204 3 -98 10 -215 15 -260 13 -109 12 -321 -1 -430 -6 -49 -24 -141 -41
-205 -39 -149 -43 -171 -30 -171 14 0 46 42 62 80 21 51 30 34 30 -62 0 -118
-15 -210 -44 -273 -23 -51 -95 -144 -153 -200 -33 -31 -42 -55 -23 -55 23 0
89 41 138 85 l53 47 -21 -52 c-47 -118 -106 -206 -194 -287 -36 -33 -66 -65
-66 -72 0 -24 49 -9 124 40 l79 50 -7 -49 c-16 -119 -61 -247 -117 -331 -42
-63 -128 -135 -212 -178 -70 -35 -62 -56 23 -63 l65 -5 -55 -32 c-30 -18 -70
-38 -88 -44 -36 -12 -41 -41 -8 -47 45 -9 225 110 257 170 18 33 -3 43 -55 25
-51 -18 -61 -10 -18 15 15 9 51 43 80 75 29 32 68 75 87 95 18 20 51 60 72 88
37 50 38 50 41 25 5 -37 -23 -120 -59 -176 -48 -75 -53 -73 156 -66 102 3 185
5 185 3 0 -2 -34 -30 -76 -62 -72 -55 -94 -79 -94 -103 0 -15 36 -14 68 3 15
7 37 17 50 21 22 6 22 4 -14 -67 -78 -154 -121 -194 -250 -225 -38 -9 -73 -20
-78 -24 -17 -15 14 -36 56 -37 66 -3 97 -11 173 -49 92 -46 202 -129 295 -223
81 -82 266 -310 251 -310 -15 0 -125 77 -155 109 -17 17 -36 31 -43 31 -30 0
-8 -37 85 -139 53 -60 105 -123 115 -140 l18 -31 -43 0 c-67 0 -142 -23 -294
-91 -222 -98 -293 -120 -411 -126 -57 -3 -103 -9 -103 -14 0 -5 11 -16 25 -25
21 -14 40 -15 115 -10 88 7 90 7 152 -26 87 -46 164 -127 217 -228 47 -90 48
-90 -44 -14 -54 44 -114 79 -122 70 -7 -7 37 -77 87 -141 80 -101 112 -244 92
-419 -6 -55 -19 -128 -30 -161 -17 -55 -19 -58 -30 -38 -29 52 -282 248 -282
218 0 -18 57 -76 138 -142 52 -41 92 -77 90 -79 -8 -7 -223 71 -260 94 -20 13
-54 26 -75 29 l-38 6 20 -23 c11 -12 51 -42 89 -67 75 -49 167 -136 191 -183
l15 -29 -53 24 c-70 32 -154 53 -262 66 -218 25 -249 30 -290 48 -23 10 -58
22 -76 26 l-32 7 21 -26 c11 -15 42 -43 69 -63 51 -38 123 -120 123 -140 0 -7
-29 7 -65 31 -76 51 -238 121 -260 113 -29 -12 -15 -34 35 -57 73 -34 81 -51
13 -27 -43 15 -93 21 -194 24 -198 7 -258 -2 -741 -118 -114 -27 -213 -49
-220 -49 -7 0 23 21 67 46 89 52 125 81 125 101 0 20 -25 10 -122 -48 -112
-68 -324 -171 -542 -264 -98 -41 -248 -113 -335 -159 -86 -46 -202 -107 -259
-136 -66 -33 -164 -99 -277 -185 -156 -118 -196 -144 -362 -225 -265 -130
-394 -170 -554 -170 -231 0 -328 69 -554 396 -38 56 -108 144 -155 196 -170
189 -362 495 -410 656 -43 142 -28 189 155 502 265 451 297 512 329 621 12 39
13 56 5 66 -17 19 -37 -1 -50 -51 -23 -87 -134 -296 -356 -674 -143 -242 -161
-298 -138 -417 8 -42 29 -111 48 -154 70 -161 259 -445 393 -588 115 -123 118
-128 54 -103 -73 29 -133 41 -230 49 l-85 6 37 25 c38 25 48 45 26 52 -6 2
-40 -4 -75 -13 -130 -36 -301 -50 -577 -48 -225 2 -266 0 -300 -14 -21 -9 -39
-17 -41 -17 -1 0 -5 47 -8 105 -8 126 5 234 40 324 38 101 39 111 13 111 -13
0 -41 -18 -67 -44 l-45 -45 7 42 c10 57 60 162 90 185 29 23 34 57 7 49 -166
-49 -217 -58 -357 -66 -82 -5 -152 -7 -154 -5 -3 3 43 53 102 112 153 154 144
178 -34 93 -108 -52 -243 -101 -277 -101 -17 0 -18 5 -11 52 5 29 13 143 18
253 6 122 16 223 26 260 16 61 62 161 112 247 40 68 24 79 -56 38 -62 -31 -62
-31 -46 -6 19 28 104 96 152 120 17 9 35 21 39 27 11 19 -26 39 -73 39 -24 0
-58 6 -76 14 -31 12 -151 104 -238 181 l-36 32 161 -4 c173 -5 230 4 206 32
-10 12 -42 15 -160 15 -81 0 -161 3 -178 6 -31 6 -30 7 46 53 42 26 138 93
212 149 131 100 194 132 257 132 13 0 23 4 23 10 0 5 -30 39 -68 74 -37 35
-75 79 -86 96 -18 31 -18 32 0 26 46 -14 189 -24 213 -14 24 9 25 10 8 23 -10
7 -54 16 -98 20 -43 4 -81 10 -84 15 -2 4 19 18 46 31 l51 23 60 -33 c76 -42
118 -55 118 -36 0 21 -39 47 -202 137 -144 81 -148 83 -113 88 20 3 37 10 38
15 1 6 -29 28 -66 50 -87 53 -136 101 -180 180 -43 79 -108 235 -136 330 l-20
70 56 -65 c91 -104 206 -216 210 -203 2 6 -7 29 -20 50 -67 105 -262 461 -303
553 -116 261 -188 516 -219 775 -20 165 -56 557 -52 561 2 2 14 -22 27 -54 43
-106 150 -313 202 -390 28 -43 95 -140 148 -217 170 -245 200 -307 220 -447 6
-40 16 -84 21 -98 11 -24 11 -24 26 -5 21 28 11 224 -15 318 -11 37 -16 67
-12 67 10 0 166 -162 179 -187 7 -14 21 -23 36 -23 31 0 38 12 24 47 -10 27
-8 26 31 -12 23 -22 59 -65 80 -95 49 -73 68 -89 81 -69 4 8 7 21 4 29 -2 8
-7 29 -10 45 -6 29 -6 29 14 -6 37 -67 74 -53 45 17 -8 20 -13 38 -11 40 2 2
46 -2 99 -10 52 -8 154 -18 226 -22 l132 -7 -18 -22 c-9 -12 -42 -53 -73 -91
-60 -74 -129 -178 -129 -194 0 -29 44 2 159 113 70 67 152 138 182 159 54 36
55 36 209 48 85 7 169 18 185 25 17 7 46 16 65 20 64 14 223 76 324 126 59 29
96 43 93 35 -3 -8 -48 -84 -99 -168 -52 -84 -101 -170 -110 -190 -10 -20 -33
-54 -51 -75 -19 -21 -75 -92 -125 -158 -107 -144 -216 -249 -429 -418 -150
-119 -196 -168 -172 -183 6 -3 -7 -24 -28 -47 -56 -62 -100 -135 -130 -218
-24 -66 -27 -89 -27 -204 -1 -126 0 -133 32 -207 88 -203 226 -330 422 -385
85 -24 379 -24 450 0 43 14 39 15 -125 14 -130 -1 -186 3 -238 16 -237 60
-418 250 -433 455 -8 100 17 246 56 330 35 75 115 158 183 191 41 20 57 22
112 16 l63 -6 -24 -54 c-73 -158 -71 -415 5 -562 35 -70 96 -137 152 -168 46
-26 64 -30 129 -30 63 0 82 4 121 27 25 15 62 44 82 64 20 21 39 35 42 33 8
-9 24 -147 25 -214 0 -63 12 -100 23 -72 22 58 14 338 -14 472 -41 195 -128
355 -266 486 l-59 57 114 31 c123 34 293 94 329 117 12 7 86 41 165 75 174 74
239 109 581 311 396 235 659 405 735 478 12 12 28 20 34 18 6 -2 22 -51 34
-109 28 -121 54 -192 101 -271 53 -89 98 -89 86 0 -13 94 107 260 248 342 70
41 279 140 296 140 6 0 36 -11 67 -25 91 -40 119 -27 46 21 -22 15 -40 29 -40
33 0 10 178 84 255 106 67 20 71 23 97 70 28 51 68 184 68 223 0 13 6 24 13
26 6 2 57 18 111 35 55 17 101 29 104 27 2 -3 -11 -32 -29 -66 -37 -69 -102
-132 -151 -146 -23 -7 -33 -16 -33 -29 0 -18 6 -20 53 -18 l54 3 -36 -40 c-40
-45 -45 -60 -18 -60 23 0 152 131 152 154 0 10 -8 16 -21 16 -20 0 -21 1 -5
23 32 43 108 208 102 223 -7 18 -29 18 -67 -2 -43 -22 -47 -11 -12 29 76 87
133 213 152 338 16 103 24 255 17 304 -7 41 -9 44 -26 35 -18 -10 -19 -8 -10
16 32 82 40 203 41 554 0 461 17 631 85 868 38 130 100 265 175 377 75 112 91
124 309 230 115 55 115 56 197 52 70 -3 92 -9 157 -40z m-689 -146 c-6 -5 -64
-49 -130 -99 -66 -49 -226 -185 -355 -303 -389 -353 -611 -551 -614 -548 -1 2
-10 40 -20 84 -20 88 -79 252 -118 330 -67 131 -126 105 -127 -56 -1 -72 21
-203 44 -270 9 -23 13 -44 11 -46 -2 -2 -35 18 -72 45 -83 61 -234 142 -328
177 -141 53 -271 75 -551 95 -341 24 -509 69 -679 184 -38 25 -75 46 -82 46
-66 0 133 -322 284 -460 37 -34 58 -59 47 -56 -275 74 -504 95 -1035 96 -406
0 -568 10 -784 47 l-159 27 -155 195 c-207 260 -345 395 -484 471 l-50 27 357
8 c197 4 855 4 1464 1 608 -3 1462 -2 1896 2 1168 13 1650 13 1640 3z m-5440
-36 c49 -13 68 -25 113 -72 100 -103 187 -260 250 -453 79 -239 102 -436 102
-871 1 -252 11 -381 35 -441 15 -37 -13 -16 -56 42 -24 32 -47 59 -51 60 -26
1 -58 -163 -58 -294 0 -93 16 -180 45 -249 6 -15 4 -18 -11 -15 -16 2 -18 -2
-16 -31 8 -80 64 -181 171 -311 l61 -75 -30 -3 c-65 -7 -54 -67 28 -148 43
-43 44 -45 28 -69 -16 -24 -106 -98 -214 -177 -49 -35 -51 -36 -68 -17 -24 26
-54 25 -54 -3 0 -18 -10 -11 -62 38 -146 139 -197 152 -164 40 8 -27 11 -45 7
-40 -8 9 -113 162 -282 414 -127 188 -233 414 -283 603 -24 92 -26 118 -35
462 -12 415 1 695 45 1060 27 219 53 278 186 421 78 83 165 133 248 143 3 1
32 -6 65 -14z m5363 -141 c-56 -106 -100 -219 -131 -340 -58 -219 -75 -418
-76 -902 -1 -332 -5 -372 -46 -497 -27 -81 -85 -205 -127 -271 -44 -70 -45
-74 -19 -74 23 0 67 52 141 165 l53 80 -7 -100 c-13 -224 -63 -353 -178 -463
-41 -40 -126 -102 -139 -102 -3 0 -9 44 -12 98 -7 116 -41 239 -99 360 -23 48
-43 90 -45 93 -6 10 66 39 72 29 3 -6 15 -10 26 -10 14 0 19 7 19 26 0 19 19
47 65 95 84 90 169 259 151 304 -4 12 -10 13 -24 6 -16 -9 -16 -2 7 62 32 94
37 236 8 264 -18 17 -19 17 -40 -10 -12 -15 -39 -48 -59 -73 -64 -77 -37 -106
33 -35 l39 39 0 -32 c0 -79 -53 -222 -100 -271 -16 -16 -33 -43 -39 -58 -15
-39 11 -47 62 -18 l39 23 -32 -60 c-17 -32 -49 -77 -71 -98 l-39 -38 0 36 c0
107 -60 278 -143 407 l-47 71 83 0 c95 0 127 7 127 26 0 7 -13 20 -30 29 -64
33 -217 147 -278 207 -35 35 -85 92 -110 127 l-45 63 69 65 c320 302 970 871
981 859 1 -1 -16 -38 -39 -82z m-5025 -86 c80 -81 351 -407 344 -415 -2 -1
-27 7 -57 18 -47 18 -55 18 -68 5 -13 -13 -13 -20 3 -63 25 -64 159 -289 235
-394 34 -46 130 -151 214 -234 154 -153 273 -245 411 -321 l74 -40 -84 -67
c-194 -154 -296 -298 -476 -665 -129 -263 -210 -403 -260 -448 -20 -18 -21
-18 -67 31 -52 54 -44 69 21 42 20 -9 40 -11 48 -7 19 12 2 40 -77 131 -98
112 -209 279 -185 279 5 0 13 -4 16 -10 8 -13 45 -13 45 0 0 5 -12 35 -26 67
-49 108 -65 168 -70 253 -6 91 14 239 31 230 5 -3 46 -50 90 -105 51 -64 88
-101 103 -103 12 -2 22 -1 22 1 0 2 -14 37 -30 77 -73 178 -72 170 -81 570
-10 477 -30 651 -105 878 -39 120 -107 269 -154 336 -17 25 -26 46 -21 46 6 0
52 -42 104 -92z m4327 -1780 c31 -10 32 -12 15 -24 -16 -12 -21 -11 -37 3 -16
14 -24 33 -14 33 1 0 18 -5 36 -12z m1868 -1768 c-14 -22 -24 -19 -15 5 4 8
11 15 17 15 6 0 6 -7 -2 -20z m-4950 -667 c17 -10 22 -22 20 -41 -3 -24 -8
-27 -45 -30 -56 -4 -103 20 -103 54 0 44 71 53 128 17z m-125 -83 c34 -29 34
-31 39 -132 9 -162 57 -268 121 -268 12 0 54 9 92 20 160 46 209 6 120 -97
-73 -86 -191 -116 -281 -72 -134 64 -220 280 -194 487 6 40 12 78 15 83 12 18
55 8 88 -21z"/>
<path d="M9291 8575 c-12 -31 -21 -63 -21 -73 0 -9 -18 -69 -39 -132 -22 -63
-38 -116 -36 -119 20 -19 86 112 115 225 34 132 20 204 -19 99z"/>
<path d="M9273 8327 c-11 -17 -35 -59 -51 -93 -17 -33 -47 -87 -66 -120 -40
-66 -42 -71 -22 -76 10 -2 -5 -26 -44 -72 -33 -38 -57 -73 -54 -78 9 -15 64
25 119 85 84 95 155 228 111 211 -13 -5 -11 4 8 49 28 61 43 127 30 127 -5 0
-19 -15 -31 -33z"/>
<path d="M6720 7454 c-165 -25 -253 -61 -408 -167 -150 -103 -237 -230 -288
-421 -34 -128 -64 -342 -63 -446 l1 -85 18 70 c9 39 27 120 38 182 65 342 192
528 447 656 65 32 235 91 242 83 2 -1 -8 -23 -22 -48 -34 -60 -65 -187 -65
-262 1 -296 238 -526 499 -486 199 31 357 196 400 416 9 46 19 84 23 84 9 0
27 -56 34 -110 11 -87 -3 -152 -48 -219 -59 -88 -187 -221 -280 -291 -101 -76
-317 -183 -423 -209 -84 -21 -259 -41 -356 -41 -62 0 -87 -15 -43 -26 24 -6
173 -1 369 13 169 11 351 74 500 172 107 69 179 131 286 247 124 134 179 247
163 337 -10 54 -80 189 -131 252 -117 143 -312 257 -515 299 -94 19 -248 19
-378 0z m394 -143 c107 -28 171 -59 277 -133 l89 -63 0 -75 c0 -41 -5 -95 -11
-120 -29 -128 -130 -255 -248 -313 -60 -29 -74 -32 -161 -32 -83 0 -102 3
-150 27 -135 67 -217 185 -240 346 -17 119 20 273 86 360 l27 35 126 -6 c78
-3 156 -13 205 -26z"/>
<path d="M8206 7028 c-35 -73 -104 -154 -158 -186 -31 -18 -36 -39 -13 -48 34
-14 153 94 195 177 20 38 24 41 30 24 18 -49 21 -121 6 -170 -28 -89 26 -85
77 6 23 41 38 55 80 74 75 34 297 68 297 45 0 -11 -96 -110 -138 -143 -20 -15
-21 -21 -11 -34 19 -22 81 -11 141 27 28 17 52 29 54 27 8 -7 -16 -119 -33
-154 -9 -21 -37 -56 -60 -78 -53 -51 -44 -66 31 -58 40 4 64 0 101 -16 26 -12
46 -24 43 -27 -3 -3 -34 -13 -69 -22 -53 -14 -65 -21 -67 -40 -4 -26 37 -48
128 -67 l55 -11 -50 -37 c-27 -20 -75 -45 -105 -55 -60 -20 -73 -45 -26 -50
41 -5 143 48 199 104 26 26 47 51 47 55 0 17 -47 39 -85 40 -22 0 -49 4 -60 8
-16 6 -9 10 32 20 29 7 57 19 64 27 25 30 -44 91 -127 113 l-41 11 29 57 c28
59 54 199 42 235 -7 25 -43 23 -72 -4 -27 -24 -25 -19 20 51 30 48 35 76 15
84 -6 2 -37 1 -67 -4 -30 -4 -95 -13 -143 -19 -99 -12 -186 -41 -212 -70 -10
-11 -21 -20 -25 -20 -4 0 -10 24 -13 54 -7 67 -40 146 -61 146 -10 0 -29 -29
-50 -72z"/>
<path d="M3567 6483 c-4 -3 -7 -14 -7 -24 0 -13 -9 -19 -32 -21 -30 -3 -33 -6
-32 -33 1 -16 5 -40 9 -53 7 -22 6 -23 -41 -17 -102 12 -141 -25 -84 -80 35
-33 38 -45 11 -45 -28 0 -181 -80 -188 -98 -14 -35 202 -194 243 -178 30 11
12 37 -46 66 -59 30 -130 85 -130 100 0 20 112 62 176 68 74 6 92 23 53 50
-13 9 -37 29 -54 45 l-30 29 45 -6 c25 -4 66 -9 93 -12 56 -8 58 -1 21 56 -32
49 -27 61 11 26 16 -15 32 -26 37 -26 15 0 22 32 10 51 -9 13 4 9 40 -15 63
-40 88 -48 107 -37 19 12 7 28 -39 51 -22 11 -64 40 -94 65 -56 45 -67 51 -79
38z"/>
<path d="M5090 6043 c0 -6 26 -34 58 -64 115 -107 197 -168 208 -156 10 10
-54 72 -145 139 -53 39 -102 75 -108 81 -8 6 -13 6 -13 0z"/>
<path d="M4940 6031 c0 -14 190 -181 206 -181 24 0 15 16 -33 62 -52 48 -156
128 -166 128 -4 0 -7 -4 -7 -9z"/>
<path d="M5350 6012 c0 -10 182 -172 238 -211 45 -31 50 -21 11 23 -51 58
-249 208 -249 188z"/>
<path d="M5562 5979 c7 -22 176 -168 220 -190 l39 -20 -17 26 c-9 14 -53 54
-98 88 -122 94 -149 112 -144 96z"/>
<path d="M5034 5161 c-111 -20 -295 -73 -362 -104 -23 -11 -52 -31 -63 -46
-48 -60 6 -208 111 -304 98 -91 366 -190 515 -191 123 0 263 68 397 193 66 61
79 80 102 141 50 137 30 208 -77 259 -104 51 -166 63 -352 67 -134 3 -191 0
-271 -15z"/>
<path d="M7050 5057 c-36 -7 -71 -16 -77 -20 -20 -12 -15 -35 7 -42 11 -3 20
-9 20 -13 -2 -33 -295 -294 -436 -388 -258 -173 -479 -224 -967 -224 -292 0
-307 -3 -451 -101 -50 -35 -124 -78 -163 -96 -42 -19 -73 -40 -73 -48 0 -25
42 -17 125 25 44 22 81 40 82 40 2 0 3 -10 3 -23 0 -34 45 -119 91 -170 23
-26 66 -59 101 -76 83 -42 185 -44 268 -5 118 54 228 214 238 344 l4 66 122
12 c338 34 570 135 826 358 36 32 126 104 202 160 75 57 142 112 150 122 7 10
23 24 36 31 16 8 22 20 20 34 -4 27 -36 31 -128 14z"/>
<path d="M3606 10174 c-3 -9 -6 -66 -6 -127 0 -90 5 -125 23 -179 23 -67 23
-67 3 -65 -52 5 -38 -186 21 -282 35 -56 123 -113 168 -109 43 4 36 19 -26 51
-30 16 -64 38 -76 49 -31 29 -60 104 -69 177 l-7 63 26 -17 c40 -26 93 -35
114 -20 16 12 12 18 -39 66 -72 69 -88 118 -88 274 0 73 -4 115 -12 123 -16
16 -25 15 -32 -4z"/>
<path d="M3603 9260 c-13 -5 -23 -18 -23 -28 0 -27 50 -97 89 -127 72 -52 162
-70 169 -33 2 12 -8 20 -40 28 -60 16 -123 54 -149 91 l-22 31 74 -5 c41 -3
87 -7 103 -9 38 -4 44 16 11 38 -31 20 -176 30 -212 14z"/>
<path d="M6110 2778 c0 -86 55 -298 117 -458 70 -176 281 -583 325 -625 7 -7
9 -7 6 0 -3 6 -24 54 -47 108 -23 54 -78 173 -122 265 -109 226 -172 387 -225
571 -24 85 -46 156 -49 159 -3 3 -5 -6 -5 -20z"/>
</g>
</svg>
